<svg width="693" height="671" viewBox="0 0 693 671" fill="none" xmlns="http://www.w3.org/2000/svg">
<g clip-path="url(#clip0_2045_182)">
<path d="M632.123 641.122C631.382 641.156 630.649 640.961 630.023 640.565C629.396 640.168 628.907 639.589 628.621 638.905C628.335 638.221 628.266 637.466 628.424 636.741C628.582 636.017 628.958 635.359 629.503 634.855L629.75 633.87C629.718 633.792 629.685 633.713 629.652 633.634C628.906 631.872 627.656 630.369 626.059 629.315C624.461 628.262 622.588 627.703 620.675 627.71C618.761 627.717 616.892 628.29 615.303 629.355C613.714 630.421 612.475 631.933 611.742 633.701C608.813 640.755 605.084 647.822 604.165 655.282C603.761 658.579 603.931 661.922 604.669 665.16C597.79 650.153 594.217 633.841 594.194 617.331C594.193 613.189 594.423 609.049 594.883 604.932C595.264 601.557 595.792 598.205 596.468 594.878C600.156 576.825 608.073 559.905 619.57 545.506C625.134 542.47 629.634 537.801 632.463 532.128C633.488 530.089 634.213 527.913 634.614 525.666C633.986 525.749 632.247 516.189 632.721 515.602C631.846 514.275 630.28 513.615 629.325 512.32C624.573 505.878 618.027 507.003 614.61 515.757C607.309 519.441 607.239 525.552 611.718 531.429C614.568 535.168 614.96 540.227 617.46 544.23C617.203 544.559 616.935 544.878 616.678 545.207C611.975 551.254 607.877 557.748 604.441 564.594C605.276 556.924 604.279 549.165 601.531 541.956C598.746 535.237 593.525 529.578 588.928 523.769C583.406 516.792 572.083 519.837 571.11 528.682C571.1 528.767 571.091 528.853 571.082 528.938C571.765 529.324 572.433 529.733 573.087 530.165C573.909 530.714 574.546 531.498 574.914 532.415C575.282 533.332 575.365 534.339 575.151 535.304C574.937 536.268 574.437 537.146 573.716 537.822C572.995 538.497 572.087 538.939 571.11 539.09L571.01 539.105C571.254 541.566 571.683 544.005 572.296 546.401C566.399 569.209 579.131 577.516 597.312 577.889C597.713 578.095 598.104 578.301 598.506 578.496C595.054 588.279 592.888 598.47 592.064 608.811C591.597 614.912 591.625 621.041 592.146 627.138L592.115 626.922C590.798 620.143 587.182 614.025 581.877 609.604C573.997 603.131 562.865 600.748 554.365 595.545C553.462 594.965 552.411 594.655 551.338 594.653C550.264 594.65 549.212 594.954 548.306 595.53C547.4 596.106 546.677 596.928 546.223 597.901C545.769 598.874 545.603 599.956 545.744 601.021C545.755 601.096 545.767 601.172 545.779 601.248C547.046 601.764 548.28 602.359 549.473 603.028C550.156 603.413 550.824 603.822 551.478 604.255C552.3 604.804 552.936 605.588 553.304 606.505C553.673 607.422 553.755 608.429 553.542 609.393C553.328 610.358 552.828 611.236 552.107 611.911C551.386 612.587 550.477 613.029 549.501 613.179L549.401 613.195C549.329 613.205 549.267 613.215 549.195 613.226C551.36 618.395 554.399 623.154 558.178 627.292C561.866 647.203 577.705 649.092 594.647 643.294H594.657C596.516 651.372 599.209 659.234 602.694 666.755H631.403C631.506 666.436 631.599 666.107 631.692 665.788C629.034 665.955 626.366 665.796 623.747 665.315C625.878 662.701 628.008 660.067 630.138 657.453C630.185 657.404 630.23 657.353 630.272 657.299C631.352 655.961 632.443 654.633 633.523 653.296L633.524 653.294C633.581 649.194 633.11 645.102 632.123 641.122Z" fill="#F2F2F2"/>
<path d="M584.285 385.827C591.894 358.2 606.087 334.67 629.003 316.568C629.91 315.168 631.335 314.184 632.966 313.833C634.598 313.481 636.302 313.792 637.704 314.695L690.01 348.467C691.41 349.374 692.394 350.799 692.746 352.43C693.097 354.062 692.787 355.765 691.883 357.168L647.165 426.426C646.258 427.827 644.833 428.811 643.202 429.162C641.571 429.514 639.867 429.203 638.464 428.3L586.159 394.528C584.758 393.621 583.774 392.196 583.423 390.565C583.071 388.933 583.382 387.229 584.285 385.827Z" fill="#F2F2F2"/>
<path d="M601.804 367.499C603.765 352.902 615.84 337.98 630.553 322.974C631.402 321.662 632.737 320.74 634.265 320.412C635.792 320.083 637.388 320.373 638.702 321.219L683.654 350.244C684.966 351.093 685.887 352.428 686.216 353.955C686.545 355.483 686.255 357.079 685.409 358.393L645.615 420.023C644.766 421.335 643.431 422.256 641.904 422.585C640.376 422.914 638.78 422.624 637.466 421.777L609.619 403.797C603.776 400.015 599.671 394.069 598.206 387.264C596.741 380.459 598.035 373.351 601.804 367.499Z" fill="#B1F1CB"/>
<path d="M605.815 427.016C599.178 399.139 600.284 371.683 611.65 344.782C611.77 343.118 612.545 341.569 613.805 340.476C615.066 339.382 616.709 338.834 618.373 338.95L680.478 343.357C682.142 343.477 683.691 344.252 684.784 345.512C685.877 346.773 686.426 348.415 686.31 350.08L680.475 432.313C680.355 433.978 679.58 435.526 678.319 436.62C677.059 437.713 675.416 438.262 673.752 438.146L611.647 433.739C609.983 433.619 608.434 432.844 607.341 431.583C606.247 430.323 605.699 428.68 605.815 427.016Z" fill="#F2F2F2"/>
<path d="M612.342 402.516C607.03 388.779 610.426 369.886 616.093 349.648C616.205 348.09 616.931 346.639 618.112 345.615C619.292 344.591 620.831 344.077 622.389 344.186L675.763 347.973C677.322 348.086 678.772 348.812 679.796 349.992C680.82 351.173 681.334 352.711 681.226 354.27L676.033 427.447C675.921 429.005 675.195 430.456 674.014 431.48C672.834 432.504 671.295 433.018 669.736 432.909L636.673 430.563C629.73 430.062 623.269 426.828 618.708 421.57C614.146 416.312 611.857 409.46 612.342 402.516Z" fill="#B1F1CB"/>
<path d="M611.17 254.925L584.564 156.447C583.424 152.279 580.691 148.725 576.955 146.553C573.218 144.382 568.778 143.766 564.592 144.84C562.426 145.395 560.396 146.386 558.626 147.751C556.855 149.117 555.382 150.828 554.294 152.782C553.207 154.736 552.529 156.89 552.302 159.114C552.075 161.339 552.302 163.586 552.972 165.719L583.745 267.165L599.846 329.596C597.501 331.387 595.764 333.856 594.871 336.668C593.978 339.48 593.973 342.499 594.855 345.314C595.738 348.129 597.465 350.605 599.804 352.404C602.142 354.203 604.978 355.238 607.925 355.37C610.872 355.502 613.789 354.723 616.278 353.139C618.767 351.555 620.709 349.243 621.839 346.518C622.968 343.792 623.232 340.785 622.593 337.905C621.954 335.025 620.444 332.411 618.268 330.418L611.17 254.925Z" fill="#FFB6B6"/>
<path d="M419.29 271.961L446.575 173.67C447.719 169.502 447.178 165.052 445.069 161.279C442.961 157.507 439.453 154.715 435.304 153.505C433.158 152.88 430.906 152.698 428.687 152.971C426.468 153.244 424.328 153.966 422.397 155.093C420.466 156.22 418.785 157.728 417.456 159.526C416.127 161.324 415.178 163.374 414.667 165.55L389.455 268.52L371.498 330.442C368.568 330.788 365.815 332.027 363.614 333.992C361.413 335.957 359.87 338.551 359.195 341.423C358.52 344.295 358.745 347.306 359.84 350.045C360.936 352.785 362.848 355.121 365.317 356.736C367.786 358.351 370.692 359.166 373.641 359.072C376.59 358.978 379.438 357.978 381.799 356.208C384.16 354.439 385.919 351.986 386.837 349.182C387.755 346.378 387.787 343.359 386.93 340.536L419.29 271.961Z" fill="#FFB6B6"/>
<path d="M575.429 649.526L558.042 649.525L549.771 582.463L575.431 582.464L575.429 649.526Z" fill="#FFB6B6"/>
<path d="M576.04 667.664L522.575 667.662V666.986C522.575 661.467 524.768 656.174 528.671 652.272C532.573 648.369 537.866 646.176 543.385 646.176L553.153 638.767L571.374 646.177L576.041 646.177L576.04 667.664Z" fill="#0E1512"/>
<path d="M453.076 649.702L435.96 646.649L439.589 579.175L464.851 583.681L453.076 649.702Z" fill="#FFB6B6"/>
<path d="M450.495 667.664L397.86 658.277L397.979 657.612C398.948 652.179 402.035 647.353 406.562 644.196C411.089 641.039 416.685 639.809 422.118 640.778L433.035 635.198L449.673 645.692L454.267 646.511L450.495 667.664Z" fill="#0E1512"/>
<path d="M454.771 341.184C454.771 341.184 438.567 364.135 439.228 371.837C439.888 379.539 445.611 373.395 439.888 379.539C434.166 385.683 430.832 381.561 433.643 389.152C436.455 396.743 437.6 391.827 436.455 396.743C435.311 401.658 437.599 589.668 437.599 589.668H467.396C467.396 589.668 484.2 480.652 482.073 475.562C479.945 470.472 479.994 472.688 482.259 467.279C484.523 461.87 486.654 455.436 486.654 455.436L510.207 389.152L528.374 482.479L549.759 593.378H578.314C578.314 593.378 583.203 430.298 585.365 428.267C587.527 426.235 584.94 421.668 582.228 419.036C579.515 416.404 580.056 413.732 580.93 408.309C581.804 402.887 585.492 399.863 585.365 396.459C585.238 393.056 593.249 338.988 580.66 330.386C568.071 321.785 454.771 341.184 454.771 341.184Z" fill="#0E1512"/>
<path d="M554.4 112.574L521.07 103.937L505.512 82.4783L468.563 87.0205L460.698 116.29L434.393 131.559C481.546 131.841 456.153 268.448 463.084 277.262C468.724 284.434 434.934 301.497 445.524 312.382C456.114 323.267 452.198 318.911 449.741 330.761C447.283 342.612 429.37 355.153 449.741 355.028C470.112 354.904 593.033 353.148 589.521 339.1C586.009 325.051 586.064 328.619 580.768 319.811C575.473 311.003 571.908 315.925 573.691 302.928C575.473 289.931 569.685 279.879 573.717 274.127C579.905 265.299 573.669 201.573 567.833 203.274L554.4 112.574Z" fill="#D9D5D5"/>
<path d="M544.884 113.029C544.884 113.029 569.265 102.671 578.045 121.987C580.849 128.157 583.21 143.653 585.485 140.217C587.761 136.78 585.565 144.314 586.974 144.323C588.231 144.331 590.164 142.298 588.703 149.303C588.245 151.601 588.377 153.977 589.086 156.21C589.795 158.444 591.057 160.461 592.756 162.074L550.382 187.453L544.884 113.029Z" fill="#D9D5D5"/>
<path d="M453.28 130.59C453.28 130.59 428.899 120.232 420.119 139.548C417.65 144.98 418.264 157.051 413.456 155.696C408.647 154.341 412.061 159.447 411.426 161.221C410.719 163.198 413.806 168.793 409.471 166.835C405.135 164.877 405.407 179.635 405.407 179.635L447.782 205.013L453.28 130.59Z" fill="#D9D5D5"/>
<path d="M464.839 101.66L457.815 113.953C457.815 113.953 438.499 124.489 438.499 126.245C438.499 128.001 442.011 142.339 438.499 153.608C434.987 164.877 445.203 186.07 447.279 203.509C456.059 277.262 429.95 304.06 424.451 351.015L480.174 367.289C480.174 367.289 489.424 243.898 489.424 215.801C489.424 187.705 464.839 101.66 464.839 101.66Z" fill="#0E1512"/>
<path d="M515.764 96.3926L530.119 104.557C530.119 104.557 548.904 108.699 549.129 110.441C549.353 112.182 549.42 130.693 554.342 141.421C559.265 152.149 557.909 157.853 571.166 189.567C577.94 205.771 593.491 335.416 593.491 335.416L540.304 358.674C540.304 358.674 515.368 237.475 511.779 209.609C508.19 181.743 515.764 96.3926 515.764 96.3926Z" fill="#0E1512"/>
<path d="M479.871 79.6506C499.924 79.6506 516.18 63.3943 516.18 43.3413C516.18 23.2882 499.924 7.03198 479.871 7.03198C459.818 7.03198 443.562 23.2882 443.562 43.3413C443.562 63.3943 459.818 79.6506 479.871 79.6506Z" fill="#FFB6B6"/>
<path d="M503.767 71.5521C495.184 64.8432 506.916 35.3305 492.743 41.6299C492.743 41.6299 475.419 30.606 471.939 37.8502C467.909 46.2384 453.576 42.4331 444.773 39.4724C445.465 37.864 445.957 36.1768 446.237 34.4486C444.612 35.729 442.89 36.882 441.088 37.8975C439.878 37.2514 438.808 36.3738 437.938 35.3147C437.079 34.3312 436.542 33.1084 436.398 31.8106C436.255 30.5128 436.512 29.2021 437.135 28.0547C438.599 25.8027 441.623 25.1097 443.403 23.1096C443.608 22.8284 443.743 22.5014 443.794 22.1568C443.845 21.8123 443.813 21.4603 443.698 21.1312C443.486 20.3265 443.454 19.485 443.604 18.6665C443.755 17.848 444.084 17.0727 444.568 16.3959C445.052 15.7191 445.68 15.1574 446.406 14.7509C447.132 14.3443 447.939 14.1029 448.769 14.0438C449.103 14.054 449.434 13.9819 449.733 13.8337C451.227 12.9193 452.607 11.8303 453.844 10.5895C451.781 10.684 454.304 -1.94439 474.758 0.447486C479.908 0.258521 482.597 5.93803 487.668 6.83571C499.96 -0.188356 510.932 9.9439 516.271 19.6291C521.61 29.3145 527.389 60.5281 503.767 71.5521Z" fill="#0E1512"/>
<path d="M348.838 19.4639H23.3616C17.1695 19.469 11.2324 21.9302 6.85275 26.3074C2.47311 30.6847 0.00869083 36.6204 0.00012207 42.8125V336.093C0.00817412 342.286 2.47203 348.224 6.85142 352.603C11.2308 356.982 17.1682 359.446 23.3616 359.454H348.838C355.03 359.446 360.966 356.981 365.343 352.602C369.72 348.222 372.181 342.285 372.187 336.093V42.8125C372.181 36.6218 369.719 30.6862 365.342 26.3088C360.964 21.9313 355.029 19.4695 348.838 19.4639Z" fill="#B1F1CB"/>
<path d="M200.123 86.7759H165.351C163.644 86.7759 162.006 86.0975 160.798 84.8899C159.59 83.6823 158.912 82.0445 158.912 80.3367C158.912 78.6289 159.59 76.991 160.798 75.7835C162.006 74.5759 163.644 73.8975 165.351 73.8975H200.123C201.831 73.8975 203.469 74.5759 204.676 75.7835C205.884 76.991 206.562 78.6289 206.562 80.3367C206.562 82.0445 205.884 83.6823 204.676 84.8899C203.469 86.0975 201.831 86.7759 200.123 86.7759Z" fill="#121B17"/>
<path d="M661.171 382.635H626.399C624.691 382.635 623.054 381.956 621.846 380.749C620.638 379.541 619.96 377.903 619.96 376.196C619.96 374.488 620.638 372.85 621.846 371.642C623.054 370.435 624.691 369.756 626.399 369.756H661.171C662.879 369.756 664.517 370.435 665.724 371.642C666.932 372.85 667.61 374.488 667.61 376.196C667.61 377.903 666.932 379.541 665.724 380.749C664.517 381.956 662.879 382.635 661.171 382.635Z" fill="#D9D5D5"/>
<path d="M290.272 221.655H75.2026C73.4949 221.655 71.857 220.976 70.6494 219.769C69.4418 218.561 68.7634 216.923 68.7634 215.216C68.7634 213.508 69.4418 211.87 70.6494 210.662C71.857 209.455 73.4949 208.776 75.2026 208.776H290.272C291.98 208.776 293.618 209.455 294.826 210.662C296.033 211.87 296.712 213.508 296.712 215.216C296.712 216.923 296.033 218.561 294.826 219.769C293.618 220.976 291.98 221.655 290.272 221.655Z" fill="#121B17"/>
<path d="M290.272 264.153H75.2026C73.4949 264.153 71.857 263.475 70.6494 262.267C69.4418 261.06 68.7634 259.422 68.7634 257.714C68.7634 256.006 69.4418 254.368 70.6494 253.161C71.857 251.953 73.4949 251.275 75.2026 251.275H290.272C291.98 251.275 293.618 251.953 294.826 253.161C296.033 254.368 296.712 256.006 296.712 257.714C296.712 259.422 296.033 261.06 294.826 262.267C293.618 263.475 291.98 264.153 290.272 264.153Z" fill="#121B17"/>
<path d="M290.272 306.653H75.2026C73.4949 306.653 71.857 305.974 70.6494 304.767C69.4418 303.559 68.7634 301.921 68.7634 300.214C68.7634 298.506 69.4418 296.868 70.6494 295.66C71.857 294.453 73.4949 293.774 75.2026 293.774H290.272C291.98 293.774 293.618 294.453 294.826 295.66C296.033 296.868 296.712 298.506 296.712 300.214C296.712 301.921 296.033 303.559 294.826 304.767C293.618 305.974 291.98 306.653 290.272 306.653Z" fill="#121B17"/>
<path d="M246.313 106.096H119.164C112.972 106.102 107.035 108.563 102.656 112.94C98.2759 117.317 95.8114 123.253 95.8029 129.445V167.733C95.8109 173.926 98.2748 179.863 102.654 184.243C107.034 188.622 112.971 191.086 119.164 191.094H246.313C252.505 191.086 258.441 188.621 262.818 184.241C267.195 179.862 269.656 173.925 269.662 167.733V129.445C269.656 123.254 267.194 117.319 262.817 112.941C258.439 108.564 252.504 106.102 246.313 106.096ZM267.086 167.733C267.086 173.245 264.896 178.532 260.998 182.43C257.1 186.328 251.813 188.518 246.3 188.518H155.027C140.003 188.518 125.594 182.55 114.971 171.926C104.347 161.303 98.3785 146.894 98.3785 131.87V129.445C98.3873 123.936 100.58 118.656 104.477 114.762C108.374 110.867 113.655 108.677 119.164 108.672H246.313C251.821 108.678 257.101 110.868 260.995 114.763C264.89 118.657 267.08 123.938 267.086 129.445V167.733Z" fill="#121B17"/>
<path d="M184.162 162.414C196.253 162.414 206.055 152.612 206.055 140.521C206.055 128.429 196.253 118.627 184.162 118.627C172.07 118.627 162.268 128.429 162.268 140.521C162.268 152.612 172.07 162.414 184.162 162.414Z" fill="#121B17"/>
<path d="M234.529 191.094L136.512 190.746L167.42 183.019L171.271 170.308L200.904 170.141L209.777 182.71L232.186 188.518L234.22 189.046L234.529 191.094Z" fill="#121B17"/>
<path d="M171.719 154.499C176.417 150.827 169.995 134.672 177.753 138.12C177.753 138.12 187.236 132.086 189.141 136.051C191.347 140.643 199.192 138.56 204.011 136.939C203.632 136.059 203.363 135.135 203.209 134.189C204.099 134.89 205.041 135.521 206.028 136.077C206.69 135.724 207.276 135.243 207.752 134.664C208.222 134.125 208.516 133.456 208.595 132.746C208.674 132.035 208.533 131.318 208.192 130.69C207.39 129.457 205.735 129.078 204.761 127.983C204.648 127.829 204.575 127.65 204.547 127.461C204.519 127.273 204.537 127.08 204.599 126.9C204.715 126.459 204.733 125.999 204.651 125.551C204.568 125.103 204.388 124.678 204.123 124.308C203.858 123.937 203.515 123.63 203.117 123.407C202.72 123.185 202.278 123.053 201.824 123.02C201.641 123.026 201.46 122.986 201.296 122.905C200.478 122.405 199.723 121.809 199.046 121.13C200.175 121.181 198.794 114.269 187.598 115.578C184.779 115.475 183.307 118.583 180.531 119.075C173.803 115.23 167.797 120.776 164.875 126.078C161.952 131.379 158.789 148.465 171.719 154.499Z" fill="#121B17"/>
<path d="M348.838 19.4639H23.3616C17.1695 19.469 11.2324 21.9302 6.85275 26.3074C2.47311 30.6847 0.00869083 36.6204 0.00012207 42.8125V336.093C0.00817412 342.286 2.47203 348.224 6.85142 352.603C11.2308 356.982 17.1682 359.446 23.3616 359.454H348.838C355.03 359.446 360.966 356.981 365.343 352.602C369.72 348.222 372.181 342.285 372.187 336.093V42.8125C372.181 36.6218 369.719 30.6862 365.342 26.3088C360.964 21.9313 355.029 19.4695 348.838 19.4639ZM369.611 336.093C369.611 341.606 367.421 346.893 363.523 350.791C359.625 354.689 354.338 356.879 348.825 356.879H170.254C148.234 356.879 126.43 352.542 106.086 344.115C85.7426 335.688 67.2579 323.337 51.6876 307.767C36.1172 292.197 23.7661 273.712 15.3395 253.368C6.9129 233.025 2.5758 211.22 2.57581 189.201V42.8125C2.58457 37.3036 4.77771 32.0231 8.67427 28.1289C12.5708 24.2348 17.8527 22.0449 23.3616 22.0396H348.838C354.346 22.0454 359.626 24.2359 363.52 28.1303C367.415 32.0247 369.605 37.3049 369.611 42.8125V336.093Z" fill="#121B17"/>
<path d="M688.876 669.75L282.745 670.146C282.34 670.144 281.952 669.981 281.666 669.694C281.38 669.406 281.219 669.018 281.219 668.612C281.219 668.207 281.38 667.818 281.666 667.531C281.952 667.243 282.34 667.081 282.745 667.079L688.876 666.683C689.281 666.685 689.67 666.848 689.955 667.135C690.241 667.422 690.402 667.811 690.402 668.217C690.402 668.622 690.241 669.011 689.955 669.298C689.67 669.585 689.281 669.748 688.876 669.75Z" fill="#CACACA"/>
</g>
<defs>
<clipPath id="clip0_2045_182">
<rect width="692.888" height="670" fill="white" transform="translate(0 0.145996)"/>
</clipPath>
</defs>
</svg>
