<svg version="1.2" xmlns="http://www.w3.org/2000/svg" viewBox="0 0 224 306" width="224" height="306"><style>.a{fill:#28684a}.b{opacity:.1;fill:#c0e1c3}.c{opacity:.1;fill:#a8d0ad}.d{opacity:.5;fill:#8fbf98}.e{opacity:.7;fill:#5b9b6a}.f{opacity:.6;fill:#63a171}.g{opacity:.3;fill:#88ba91}.h{opacity:.4;fill:#72ab7e}.i{fill:#7cdf68}.j{opacity:1;fill:#308153}.k{fill:#6bcb5e}.l{opacity:.2;fill:#a4ceaa}.m{opacity:.1;fill:#d9f3d9}</style><path fill-rule="evenodd" class="a" d="m75.1 2h3.2c2.1 0.1 5.1 1.5 8.7 4.1 3 2.1 8.1 5.7 11.3 7.9 3.1 2.2 8.7 7.2 12.5 11 3.7 3.9 7.2 7.1 7.7 7.1 0.6-0.1 2.7 2.7 4.7 6.2 2.1 3.4 4.7 8.6 5.8 11.4 1.3 3.4 2.2 9.1 2.7 15.5 0.6 9.9 0.5 10.5-2.3 16.6-1.6 3.4-3.2 6.3-3.6 6.2-0.5 0-0.8 0.6-0.8 1.2 0 0.7-0.9 2.1-2 3-1.1 1-2 2.3-2 2.8 0 0.5 1.2 1 2.8 1 1.5 0 5.6 0.7 9.2 1.6 6.1 1.4 6.6 1.4 7.8-0.3 0.7-1 1.2-1.5 1.2-1.1 0 0.5 1.9-0.3 4.3-1.5 2.3-1.3 7.1-3.4 10.7-4.7 3.6-1.3 7.2-2.9 8-3.6 0.8-0.7 3.8-2 6.5-2.7 2.8-0.8 8.2-2 12-2.7 3.9-0.7 7.9-1.1 9-0.9 1.5 0.3 2.1 1.4 2.3 3.9 0.2 1.9-0.2 8.5-0.8 14.5-0.7 6-1.9 13.2-2.6 16-0.8 2.7-1.9 7.5-2.4 10.5-1.1 5.4-1 5.6 2.9 11.5 2.2 3.3 5.4 8.9 7 12.5 1.7 3.6 3.4 8.1 3.7 10 0.3 1.9 1.2 6.8 2 10.7 0.8 4 1.4 10.9 1.4 15.3 0 7.7 0.1 8.2 3.4 11.7 1.8 2.1 3.9 4.9 4.6 6.3 0.7 1.4 2.4 6.1 3.9 10.5 2.3 7.3 2.5 9.4 2.5 25.5 0 15.1-0.3 18.3-2.1 23-1.8 5-2.3 5.5-5.1 5.8-1.8 0.1-4.1-0.2-5.2-0.8-1.4-0.7-2.1-0.7-2.4 0.2-0.2 0.7-1 3.2-1.7 5.6-0.8 2.4-2.9 5.8-4.7 7.5-3.2 3.1-3.6 3.2-22.7 3.5l-3.1 4.8c-1.7 2.7-4.4 5.9-6 7.2-1.8 1.4-4.2 2.3-6.4 2.2-1.9 0-5.9-0.7-14-3l-4 3.5c-2.2 1.9-5.2 3.8-6.7 4.1-1.6 0.4-5.4 0.4-8.5 0-3.6-0.4-5.8-0.2-5.8 0.4 0 0.6-1.9 1.3-4.2 1.6-2.4 0.3-6.5 0.2-9.3-0.2-2.7-0.4-5.8-1.6-6.7-2.6-1-1-2.6-1.8-3.5-1.8-1 0-2.6 0.9-3.5 2-1.5 1.7-3 2-9.3 2-6.4 0-7.9-0.3-10.2-2.4-1.6-1.3-3.7-4-4.8-6-1.5-2.9-2.5-3.6-4-3.1-1.1 0.3-4.5 0.8-7.5 1.2-4.8 0.6-6 0.4-9.2-1.8-2-1.3-4.8-4.2-6.2-6.4-1.4-2.2-2.6-5-2.6-6.2 0-1.4-0.6-2.3-1.5-2.3-0.8 0-1.7 0.4-2 1-0.3 0.6-2 1-3.7 1-1.8 0-5-0.5-7-1-2.1-0.6-5.2-2.5-6.8-4.2-1.7-1.8-3.2-4-3.5-4.8-0.4-1.2-1.3-1.3-5-0.5-2.4 0.6-4.7 0.8-5 0.5-0.3-0.3-1.4-4.8-2.5-10-1.3-6.4-1.9-13.6-2-22.3 0-10.7 0.4-13.9 2.4-20.4 1.4-4.3 2.3-8.1 2-8.6-0.2-0.4 1.1-3 2.9-5.9 1.7-2.8 5.3-7.1 8-9.5 2.6-2.3 5.2-4.3 5.7-4.3 0.6 0 1-2.4 1-5.3 0-2.8 0.7-9 1.5-13.7 0.7-4.7 2.1-10.5 3-13 0.9-2.5 2.4-6.3 3.5-8.5 1-2.2 3-5.3 4.4-7 1.4-1.7 3.1-4.1 3.8-5.4 0.7-1.4 2.3-3.5 3.6-4.8 1.2-1.3 2.2-2.9 2.1-3.6 0-0.6-0.9-2.5-2-4.2-1-1.7-3.1-5.5-4.5-8.5-1.4-3-3.9-8.2-5.6-11.5-1.7-3.3-4.4-7.9-5.9-10.3-1.6-2.3-2.9-4.8-2.9-5.5-0.1-0.6 0.7-1.9 1.6-2.7 1-0.8 4.9-2 8.8-2.7 3.9-0.7 10-1.2 13.6-1.2 3.6 0 10.1 0.6 14.5 1.4 4.4 0.8 10.5 2.7 13.5 4.2 3 1.5 7.5 5 14.5 12.5l5.8-0.6c3.1-0.3 5.7-1.1 5.7-1.6 0-0.5-1.7-1.9-3.7-3-2.1-1-4.1-1.7-4.5-1.5-0.5 0.3-2.9-1-5.5-2.9-2.7-1.8-6.6-5.3-8.7-7.7-2.2-2.4-5.1-6.9-6.4-9.9-2.4-5.1-2.5-6.2-1.9-17 0.3-6.3 1.2-16 1.9-21.5 0.7-5.5 1.2-14.6 1.1-20.3zm-39.6 187.6c-5.6 2.6-9.7 5.4-13.5 9.3-3 3.1-6.7 7.9-8.2 10.7-1.8 3.2-3.2 8.2-4.1 14-0.9 5.5-1.3 12.8-1 19 0.3 5.5 1.1 11.5 1.8 13.5 0.8 2.1 1.8 3.3 2.6 3.1 0.8-0.2 2.1-1 2.9-1.7 0.8-0.8 1.9-1.4 2.5-1.4 0.5 0 2.7-2.6 4.8-5.8 3.2-4.8 3.8-6.6 3.7-11 0-2.9-0.5-5.5-1-5.7-0.6-0.3-1-2.2-1-4.3 0-2.7 0.6-4.4 2.5-6.2 1.4-1.4 2.5-3.3 2.5-4.3 0-1 1.9-3.9 4.3-6.5 2.3-2.6 4.9-6 5.7-7.6 0.8-1.6 2.8-3.7 4.5-4.7 1.9-1.2 4.9-1.9 8.2-1.9 5.1 0 5.4-0.2 7.8-4 1.4-2.2 4-4.8 5.7-5.7 1.8-0.9 5.1-1.6 7.3-1.6 2.2 0 5.1 0.3 6.5 0.7 2.4 0.6 2.4 0.6 0.5-0.9-1.1-0.9-3.6-2-5.5-2.6-1.9-0.5-7.1-0.9-11.5-0.9-4.4 0.1-10.7 0.7-14 1.4-3.3 0.7-9.6 3-14 5.1zm116-2c4.5 1 6.9 2.2 9.5 4.9 3.4 3.3 3.7 3.4 7.5 2.4 2.2-0.6 6-0.8 8.5-0.5 3.7 0.5 5.3 1.4 8.7 5.1 3.5 3.7 4.4 5.5 4.8 9.3 0.4 3.5 1.4 5.6 3.6 7.8 2.4 2.4 2.9 3.8 2.9 7.5-0.1 3.2 0.5 5 2 6.5 1.1 1.1 2.1 3.1 2.1 4.5 0 1.3-0.9 3.7-2.1 5.2-1.1 1.5-2 3.3-2 4-0.1 0.7 1.1 3.1 2.5 5.3 1.5 2.1 4.1 5.2 5.8 6.7 1.8 1.5 4 2.7 4.9 2.7 1 0 2-0.9 2.4-2.2 0.3-1.2 0.8-7.9 1.1-14.7 0.4-8 0.1-15.1-0.7-19.5-0.6-3.9-2.5-10-4.1-13.5-2.1-4.9-4.2-7.7-8.1-10.9-2.9-2.4-8.5-5.9-12.3-7.8-3.9-1.8-9.7-4-13-4.8-3.5-0.9-10-1.5-15.5-1.5-5.2 0-10.6 0.6-12 1.2-2.3 1-2.1 1.1 3.5 2.3zm-93 45.9c-2.8 1.7-8.8 5.5-13.5 8.7-4.7 3.1-10.3 7.4-12.5 9.6-2.2 2.2-5.3 5.5-6.8 7.3-1.8 2.2-2.7 4.3-2.5 5.9 0.2 1.3 1.4 3.2 2.8 4.2 1.4 1 4.1 2 6.2 2.1 3.1 0.2 5.2-0.8 13.5-6.5 5.4-3.7 11.1-7.9 12.8-9.3 1.6-1.4 7.2-6.2 12.3-10.7 5.2-4.6 11.4-10.5 13.9-13.2 4.3-4.7 4.4-5.1 2.7-6.3-1.1-0.7-4.2-1.3-6.9-1.2-3.7 0-6.6 0.9-11 3.3-3.3 1.7-8.3 4.5-11 6.1zm86.2-2c1.6 1.9 4.8 6.2 7.3 9.7 2.5 3.4 8.3 11 12.9 16.8 4.6 5.8 10.2 12.5 12.5 14.8 3.6 3.8 4.6 4.3 8.6 4.3 2.9 0 5.4-0.7 7-1.9 1.4-1 3.1-3.6 3.7-5.8 0.7-2.1 1.3-4.9 1.3-6.1 0-1.6-4.1-6.1-14.3-15.8-7.8-7.5-15.8-14.7-17.7-16-1.9-1.4-5.3-3.1-7.5-3.9-2.2-0.8-6.6-1.5-9.7-1.5-3.1 0-6 0.4-6.3 1-0.3 0.5 0.7 2.5 2.2 4.4zm-25 9.3c3.1 5.9 6.6 12.1 7.9 13.8 1.2 1.6 4.9 7.9 8.3 14 3.5 6 7.4 12.5 8.9 14.4 1.5 1.9 4.6 4.3 6.9 5.2 2.4 1.1 6.1 1.7 8.5 1.6 3.9-0.2 4.6-0.7 7.5-5.2 1.8-2.8 3.3-5.5 3.3-6 0.1-0.6-2.5-4.2-5.6-8-3.1-3.9-9.3-11.8-13.8-17.5-4.5-5.8-10.2-12.7-12.7-15.5-3.6-4-5.6-5.3-9.5-6.2-2.7-0.7-7.3-1.5-10.2-1.7-2.9-0.3-5.3-0.4-5.3-0.1 0.1 0.2 2.7 5.3 5.8 11.2zm-37.3 3.2c-5.4 5.2-14.4 13-19.9 17.3-5.5 4.4-11.3 8.7-12.8 9.6-2.5 1.5-2.8 2.1-2.3 5.2 0.4 1.9 1.7 4.9 3.1 6.7 2.2 2.9 3 3.3 7.5 3.3 3.6 0 6.1-0.7 8.7-2.5 2.1-1.3 7.6-6.3 12.3-11.2 4.7-4.9 10.5-11 13-13.6l4.5-4.7c-2.3-9.3-2.8-12.3-2.5-12.8 0.3-0.4 4.2-0.6 8.7-0.5 4.6 0.1 8.3-0.1 8.3-0.5 0-0.4-0.9-2.2-2-4-1.7-2.8-2.5-3.2-5.8-3.1-2 0-5.3 0.4-7.3 0.7-2.7 0.5-5.9 2.9-13.5 10.1zm22.2 10.3c0.9 2.3 2.5 6.5 3.6 9.3 1.1 2.7 2.9 7 4 9.5 1.1 2.4 3.9 7.6 6.1 11.5 2.2 3.8 5 8 6.1 9.2 1.6 1.7 3.2 2.3 6.3 2.3 3.2 0 5.1-0.7 7.4-2.8l3.2-2.7c-5.4-7.8-10-15-13.6-21-3.6-6.1-7.8-12.9-9.4-15-2-2.7-4.2-4.5-6.9-5.3-2.1-0.7-4.9-1.2-6.2-1.2-1.2 0-2.2 0.4-2.2 1 0 0.5 0.7 2.9 1.6 5.2zm-23.5 26.6c-3.3 3.1-6 6.2-6.1 6.9 0 0.7 0.8 2.5 1.7 4 0.9 1.5 2.4 3.3 3.2 4 0.9 0.7 3.2 1.3 5.1 1.3 1.9-0.1 4.6-0.7 6-1.4 1.4-0.7 2.4-1.9 2.3-2.7-0.1-0.8-1.6-5.1-3.2-9.6l-3-8.1zm15.5-2.1c0.4 2 2 6.5 3.6 10 2.3 5.2 3.5 6.5 6.6 7.7 2 0.9 4.9 1.6 6.3 1.5 1.4 0 2.9-0.2 3.3-0.5 0.3-0.3-1.9-5.1-5.1-10.7-3.1-5.7-6.1-10.6-6.7-11-0.6-0.4-2.8-0.8-4.9-0.8h-3.8z"/><path class="b" d="m131.7 64c0.3 4.1 0.8 7.7 1 8 0.2 0.3 0.3-2 0.2-5 0-3-0.5-6.6-0.9-8-0.5-1.5-0.6 0.6-0.3 5zm-10.1 29.5c-0.3 0.8-0.6 1.7-0.6 2 0 0.3 1.2 0.4 2.8 0.4 2.2-0.1 2.3-0.2 0.5-0.5-1.5-0.3-2.1-0.9-1.8-1.9 0.2-0.8 0.3-1.5 0.1-1.5-0.3 0-0.7 0.7-1 1.5zm100.7 145c0 2.8 0.2 3.7 0.4 2 0.2-1.7 0.2-3.9 0-5-0.2-1.1-0.4 0.2-0.4 3zm-126.6 62.3c-0.3 0.4 0.8 0.7 2.4 0.7 1.6 0 2.9-0.3 2.9-0.7 0-0.5-1.1-0.8-2.5-0.8-1.3 0-2.6 0.3-2.8 0.8z"/><path class="c" d="m71.3 55c0 4.7 0.2 6.5 0.4 4 0.2-2.5 0.2-6.3 0-8.5-0.2-2.2-0.4-0.2-0.4 4.5zm-25.8 24.7c1.7 0.2 4.6 0.2 6.5 0 1.9-0.2 0.6-0.4-3-0.4-3.6 0-5.1 0.2-3.5 0.4zm44 16.4c1.7 1.8 2.8 2 7.8 1.5 3.1-0.3 5.7-1.1 5.7-1.6 0-0.5-0.4-1.3-1-1.6-0.5-0.4-1.3-0.2-1.7 0.5-0.5 0.6-2.4 1.4-4.3 1.7-2.6 0.5-3.9 0.2-5-1-0.8-0.9-1.9-1.7-2.5-1.7-0.5 0.1-0.1 1 1 2.2zm-66.2 85.9c0 3.6 0.2 4.9 0.4 3 0.2-1.9 0.2-4.8 0-6.5-0.2-1.7-0.4-0.1-0.4 3.5z"/><path class="d" d="m75.3 16c0 3.6 0.2 4.9 0.4 3 0.2-1.9 0.2-4.8 0-6.5-0.2-1.7-0.4-0.1-0.4 3.5z"/><path class="e" d="m112.5 27c2.8 2.7 5.2 4.7 5.5 4.5 0.3-0.3-1.5-2.6-4-5-2.5-2.5-5-4.5-5.5-4.5-0.5 0 1.3 2.2 4 5zm45.6 61c-2.4 1-4.3 2.1-4.2 2.5 0 0.3 2.2-0.2 4.8-1.1 2.7-0.9 5.2-2.1 5.7-2.5 0.6-0.6 0.4-0.9-0.5-0.9-0.7 0-3.4 0.9-5.8 2zm57.9 119c0 0.8 0.5 3.1 1.1 5 0.7 1.9 1.6 3.9 2.1 4.5 0.5 0.6 0.6-0.4 0.2-2.5-0.4-1.9-1.3-4.6-2-6-0.8-1.5-1.3-1.9-1.4-1zm-212.4 6.8c-0.9 3.1-1.6 6.6-1.5 7.7 0 1.1 1.1-1.4 2.4-5.5 1.4-4.1 2.5-7.6 2.5-7.8 0-0.1-0.4-0.2-0.9-0.2-0.5 0-1.6 2.6-2.5 5.8z"/><path class="f" d="m31.5 81c-2.7 0.7-2.8 0.8-0.5 0.8 1.4 0.1 4.3-0.3 6.5-0.7l4-0.9c-5.4 0-8.4 0.4-10 0.8zm13.1 44.8c0.3 0.9-0.1 2.4-1.1 3.2-0.9 0.8-1.6 1.9-1.5 2.5 0 0.6 1-0.1 2.1-1.5 1.1-1.4 2-3 2-3.7 0.1-0.6-0.4-1.4-1-1.7-0.7-0.4-0.9 0.1-0.5 1.2zm158.5 36.7c0 1.1 0.7 3.8 1.4 6l1.4 4c-0.9-6.2-1.5-8.9-2-10l-0.8-2z"/><path class="g" d="m188 78.9c-2.1 0.7-1.7 0.8 2.2 1.2 2.7 0.2 4.8 0.1 4.8-0.4 0-0.4-0.7-0.9-1.5-1.2-0.8-0.3-1.8-0.5-2.3-0.4-0.4 0.1-1.8 0.4-3.2 0.8zm-127.5 2.1c1.6 0.4 3.9 0.8 5 0.8l2 0.1c-3.1-1.4-5.4-1.7-7-1.7h-3zm87.3 11.6c-2.7 1.3-5 2.9-5.2 3.4-0.2 0.6 2.3-0.3 5.5-2 3.3-1.6 5.9-3.2 5.9-3.5 0-0.2-0.3-0.4-0.7-0.4-0.5 0-2.9 1.1-5.5 2.5zm-14.3 4.9c4 1 6.3 1.2 7 0.6q1-1-1-0.9c-1.1 0.1-4.2-0.2-7-0.5-5-0.6-5-0.6 1 0.8zm72.2 78.7c0.3 2.4 0.8 4.6 1 4.8 0.2 0.3 0.4-1.3 0.4-3.7 0.1-2.3-0.3-4.4-0.9-4.8-0.6-0.4-0.8 1-0.5 3.7zm4.3 20.8c0 0.6 0.4 1.3 1 1.5 0.6 0.3 1.9 2.2 3 4.3 1 2 1.9 3.1 2 2.2 0-0.8-1.1-3.2-2.5-5.2-1.4-2.1-2.7-3.8-3-3.8-0.3 0-0.5 0.5-0.5 1z"/><path class="h" d="m180 81c-1.3 0.9-1.3 1 0 0.9 0.8-0.1 2.6-0.5 4-0.9l2.5-0.8c-3.9-0.1-5.7 0.3-6.5 0.8zm13.3 22.5c-0.7 5.5-1.9 12.1-2.8 14.8-0.8 2.6-1.3 5-1.1 5.4 0.3 0.5 1.1-1.7 2-4.7 0.8-3 2-8.4 2.6-12 0.6-3.6 1-8.1 0.8-10-0.2-2.1-0.8 0.4-1.5 6.5zm-155.3 32.8c-1.3 1.9-2.3 3.8-2.2 4.3 0.1 0.5 1.3-0.8 2.7-2.8 1.4-2.1 2.4-4 2.2-4.4-0.2-0.3-1.4 1-2.7 2.9zm168.1 50.2c-0.1 4.7 0.2 6.5 1.8 8.5 1.1 1.4 2.1 2.1 2.1 1.5 0-0.6-0.5-1.6-1.2-2.3-0.7-0.7-1.6-4.1-1.9-7.5l-0.6-6.2zm13.6 34c0.4 2.2 0.8 11.3 0.8 20.3 0 11 0.3 15 0.8 12.5 0.5-2.1 0.7-10.6 0.5-19-0.2-11-0.7-15.6-1.6-16.5-1.1-1.1-1.2-0.6-0.5 2.7zm-219.2 11.7c-0.4 3.5-0.2 8.5 0.3 11.3 0.9 4.5 1 3.9 1.1-6.3 0-6.1-0.1-11.2-0.3-11.2-0.3 0-0.8 2.8-1.1 6.2zm217 31.7c-0.7 2.4-1.8 3.7-3.5 4.2l-2.5 0.7c4.9 0.2 5.7-0.4 6.5-2.6 0.6-1.5 0.9-3.4 0.8-4.2-0.2-0.8-0.8 0.1-1.3 1.9z"/><path class="i" d="m81 16.8c0 3.1-0.9 12.7-2.1 21.2-1.3 9.7-1.9 17.7-1.5 21.3 0.3 3.1 1.7 7.9 3.1 10.7 1.4 2.8 4.2 6.7 6.3 8.8 2 2 6.2 5.2 9.2 6.9 3 1.8 6.1 3.3 6.8 3.3 0.7 0 1.2-1.4 1.2-3.5 0-1.9-0.9-8.6-1.9-14.8-1.1-6.1-3.2-14.8-4.6-19.2-1.5-4.4-4.6-12.6-7.1-18.3-2.4-5.6-4.4-10.9-4.4-11.7 0-0.8 0.8-1.5 1.8-1.5 0.9-0.1 2.2 0.5 2.9 1.2 0.7 0.7 3.2 6 5.7 11.8 2.5 5.8 4.9 10.6 5.3 10.8 0.4 0.1 1.3-1.9 1.8-4.5 0.9-4.2 1.3-4.8 3.5-4.8 1.7 0 2.6 0.6 2.8 2 0.2 1.1-0.7 5.1-2 9-1.2 3.8-2.3 9.1-2.3 11.7 0 2.6 0.6 5.3 1.2 6 1 1 1.8 0.1 3.8-4.7 1.4-3.3 2.9-6.7 3.4-7.5 0.4-0.8 1.7-1.5 2.7-1.5 1 0 2 0.8 2.1 1.7 0.2 1-2 7.1-4.8 13.5-5 11.6-5.1 11.9-4.5 19l0.6 7.3c6.8-0.5 7.9-1.2 10.2-4.5 1.5-2.2 3.4-6 4.3-8.5 0.8-2.5 1.5-7.8 1.5-11.8 0-5.3-0.7-9-2.6-14-1.4-3.7-3.8-8.7-5.4-11.2-1.6-2.5-5.5-7-8.7-10.1-3.2-3.1-10.3-8.9-15.8-12.8-5.5-3.9-10.6-7.2-11.2-7.1-0.9 0-1.3 1.8-1.3 5.7zm-46.5 69.9c-1.1 0.3-1.9 1-1.7 1.5 0.1 0.5 2 3.9 4.1 7.6 2.2 3.8 5.6 10.6 7.6 15.3 2 4.7 4.9 10.7 6.5 13.5 1.5 2.7 4.8 6.8 7.2 9.1 2.3 2.2 7 5.3 10.3 6.8 3.3 1.6 9.2 3.6 13.2 4.5 4 0.9 7.5 1.4 7.8 1.1 0.3-0.3-0.1-2.3-1-4.5-0.9-2.2-2.5-5.1-3.4-6.5-1.4-1.9-3.9-3-10.2-4.7-4.6-1.2-10.8-2.5-13.8-3-2.9-0.4-5.8-1.4-6.5-2.1-0.8-1-0.7-1.7 0.6-3 1.7-1.6 2.3-1.6 11 0.1 5.1 1 9.4 1.6 9.6 1.3 0.1-0.3-0.2-1.4-0.7-2.4-0.5-0.9-2.4-3.1-4.3-4.9-3-2.9-4.3-3.3-13.3-4.5-8.8-1.2-10-1.6-10-3.3 0-1.7 0.8-2 5.3-2.3 2.8-0.1 5.2-0.7 5.2-1.2 0-0.6-2-2.5-4.5-4.3-2.5-1.7-4.5-4-4.5-5 0-0.9 0.8-2 1.8-2.3 1-0.4 3.2 0.5 5.7 2.3 2.1 1.5 8.2 6.9 13.5 11.9 5.2 5 12 12.7 15 17 3 4.3 7.3 12 9.6 16.9 2.3 4.9 5.1 12.2 6.2 16 1.2 3.8 2.9 11.5 3.8 17 1.1 7.1 1.5 14.5 1.2 25.5l-0.3 15.5 12 0.6c1.1-20.8 2.3-29.9 3.4-34.1 1-4.1 3.4-11.1 5.2-15.4 1.9-4.4 4.5-9.2 5.9-10.6 2-2.1 3.8-2.8 8.5-3.3 3.3-0.3 9.4-1.8 13.5-3.2 4.1-1.4 9.7-4 12.4-5.8 2.7-1.8 7-5.5 9.5-8.2 3-3.3 5.5-7.5 7.3-12 1.4-3.9 3.3-10.8 4.2-15.5 0.9-4.7 1.6-11.5 1.6-15.3 0-6.5-0.1-6.7-2.5-6.7-1.4 0-8.7 2-16.2 4.5-7.6 2.6-16.5 6-19.8 7.8-3.3 1.7-8.3 5.4-11.1 8.2-3.3 3.3-5.8 6.9-7.1 10.5-1.2 3-2.6 8.7-3.3 12.5-0.6 3.8-0.8 7.2-0.5 7.5 0.4 0.3 2.2-1.3 4.2-3.5 1.9-2.2 7-7.8 11.2-12.5 4.3-4.7 11.4-11.4 15.8-15 4.5-3.6 11-8.1 14.7-10 5.3-2.8 6.7-3.3 7.8-2.2 0.9 0.9 1 1.7 0.3 2.9-0.6 0.8-3.9 3.3-7.5 5.5-3.6 2.2-8.4 5.5-10.7 7.4-2.4 1.9-4.3 3.8-4.3 4.4 0 0.6 4.3 1.1 10.3 1.2 9.8 0.3 10.2 0.4 10.4 2.5 0.3 2-0.2 2.3-3 2.3-1.7 0-8.6 0.5-15.2 1l-12 0.9c-8.1 9-10.5 12-10.5 12.6 0 0.6 1.8 0.7 4.7 0.3 2.7-0.3 8.7-1.2 13.5-2 6.9-1 9-1 10-0.1 0.8 0.7 1 1.9 0.5 2.8-0.4 0.8-2.4 1.7-4.5 2-2 0.3-9.1 1.5-15.7 2.7-6.6 1.2-13 2.5-14.3 3-1.3 0.5-4.4 4.5-7.6 10-3 5.1-6.1 11.1-6.9 13.3-0.8 2.2-2.1 4.1-3 4.2-1.4 0.3-1.7-0.7-1.7-5.5v-5.7c-5.9 1.3-7.3 1.1-7.8 0.2-0.5-0.6-2.5-5.9-4.5-11.7-2.3-6.7-4-13.8-4.6-19.5-0.5-5-1.4-10.8-2.1-13-0.6-2.2-2.8-6.5-4.9-9.5-2.1-3-6.4-7.6-9.7-10.1-3.2-2.5-8.6-5.6-11.9-6.9-5.1-2-8-2.4-19.5-2.6-7.4-0.2-14.4 0-15.5 0.2z"/><path class="j" d="m104.8 34.8c-0.2 0.5-0.7 2.6-1.2 4.8-0.7 3.5-0.5 4.1 1.6 5.2 1.9 1.2 2.4 1.2 3 0 0.4-0.7 1-3 1.3-5 0.3-2.1 0.3-4.3 0-4.8-0.3-0.5-1.4-1-2.5-1-1 0-2.1 0.4-2.2 0.8z"/><path class="k" d="m110 120.8c0 16.3 0.3 31.8 0.7 34.5 0.6 3.2 1.3 4.7 2.3 4.7 1.2 0 1.6-2.5 2.3-13.7 0.4-7.6 0.7-23.1 0.7-34.5v-20.8h-6z"/><path class="b" d="m190.3 211.9c0.1 2.1 0.8 3.6 1.7 3.9 1.2 0.4 1.3 0.2 0.3-0.9-0.6-0.8-1.3-2.5-1.6-3.9-0.4-1.7-0.5-1.5-0.4 0.9zm9.5 22.3c0.3 1.8 0.7 3.5 0.9 3.8 0.2 0.3 0.4-0.9 0.4-2.7 0.1-1.7-0.3-3.5-0.8-3.8-0.5-0.3-0.7 0.8-0.5 2.7zm-172.5 4.8c0 3 0.2 4.1 0.4 2.5 0.2-1.7 0.2-4.1 0-5.5-0.2-1.4-0.4 0-0.4 3zm185.3 16.5c-0.5 2.8-1.1 3.5-2.9 3.5-2.1 0.1-2.1 0.1-0.2 1.1 1.1 0.6 2.3 0.7 2.7 0.2 0.3-0.4 0.9-2.5 1.2-4.6 0.4-2 0.5-3.7 0.2-3.7-0.2 0-0.7 1.6-1 3.5z"/><path class="c" d="m143.1 185.4c-1.9 0.6-4.6 2.4-6 3.8-2.1 2.1-2.4 2.9-1.4 4 1.1 1.1 1.7 0.9 3.5-0.8 1.3-1.2 3.3-2.7 4.6-3.3 1.2-0.6 3.4-1.2 5-1.2l2.7-0.1-6-1.5c4.6-2 4.7-2.2 3-2.2-1.1 0.1-3.5 0.6-5.4 1.3zm-61.5 1.7c0.7 1 0.4 1.2-1.1 0.6-1.8-0.6-1.8-0.5 0.3 1.3 1.2 1.1 2.7 1.8 3.2 1.5 0.6-0.3 1-0.9 1.1-1.5 0-0.5-1-1.4-2.2-2.1-1.7-0.9-2-0.8-1.3 0.2zm124.4 15.4c0 0.3 1.1 2.7 2.5 5.5 1.4 2.7 3.2 8.5 4.1 12.7 1.1 5.4 1.5 11.4 1.3 19.6-0.2 6.4-0.1 11.7 0.4 11.7 0.4 0 0.7-6 0.7-13.3 0-9.6-0.5-15.2-1.9-20.7-1-4.1-2.8-9.4-4-11.8-1.1-2.3-2.3-4.2-2.6-4.2-0.3 0-0.5 0.2-0.5 0.5zm-196.9 16.3c-0.7 2.6-1.6 8.8-1.8 13.7-0.3 4.9-0.3 8.8 0 8.5 0.2-0.3 0.8-3.7 1.1-7.5 0.4-3.8 1.1-9.6 1.6-12.9 0.6-3.2 0.9-6 0.7-6.2-0.1-0.2-0.8 1.8-1.6 4.4zm-1.6 28.8c0.4 2.1 1.1 6 1.6 8.6 0.6 3.2 1.4 4.8 2.4 4.8 1.3 0 1.3-0.4-0.2-3.3-0.9-1.7-1.7-5.3-1.8-8 0-2.8-0.6-5-1.3-5.4-1-0.4-1.2 0.3-0.7 3.3z"/><path class="l" d="m198.2 263c-0.1 1.4-0.7 4.1-1.3 6-0.6 1.9-2.5 4.7-4.3 6.3-1.7 1.5-2.8 2.7-2.3 2.7 0.4 0 2.1-0.9 3.7-2 1.8-1.2 3.4-3.5 4.1-5.8 0.6-2 0.9-5.1 0.6-6.7-0.3-2.6-0.4-2.6-0.5-0.5z"/><path class="m" d="m96 264.3c-1.3 1.3-2.3 2.9-2.2 3.5 0.1 0.8 1.4 1 4 0.6 2-0.4 3.8-0.7 4-0.8 0.1-0.1-0.2-1.3-0.8-2.9-0.5-1.5-1.4-2.7-1.8-2.7-0.5 0-1.9 1-3.2 2.3zm-68.6 6.3c0.2 0.5 1.8 1.2 3.5 1.6 1.7 0.5 3.9 0.4 4.8-0.1 1.4-0.7 0.7-0.9-2.5-1-2.3-0.1-4.7-0.4-5.2-0.8-0.6-0.3-0.8-0.2-0.6 0.3zm156.1 7.1c1.1 0.2 3.1 0.2 4.5 0 1.4-0.2 0.5-0.4-2-0.4-2.5 0-3.6 0.2-2.5 0.4zm-102.9 19.5c0.2 0.5 2.3 0.8 4.6 0.8 2.4 0 4.8-0.4 5.4-0.8 0.7-0.4-1.4-0.7-4.6-0.7-3.2 0-5.6 0.3-5.4 0.7z"/><path class="d" d="m215.3 238.5c0 3.8 0.2 5.2 0.4 3 0.2-2.2 0.2-5.3 0-7-0.2-1.7-0.4 0.2-0.4 4z"/><path class="e" d="m162 194.5c0 0.6 0.4 1.6 0.8 2.3 0.5 1 1.4 0.9 4.2-0.3 3.4-1.6 3.4-1.6 0.5-1.1-1.7 0.3-3.5 0-4.3-0.7-0.7-0.7-1.2-0.8-1.2-0.2zm29.5 60.5c3.3 3.3 6.4 6 7 6 0.6 0-1.7-2.7-5-6-3.3-3.3-6.4-6-7-6-0.6 0 1.7 2.7 5 6z"/><path class="f" d="m40.4 203.5c-1 1.3-1.7 2.8-1.6 3.2 0.1 0.4-0.8 1.8-2.1 3.1-1.2 1.3-1.7 2.2-0.9 2.2 0.6 0 1.9-1.2 2.8-2.8 0.9-1.5 2.5-3.9 3.4-5.5 1-1.5 1.4-2.7 1-2.7-0.4 0-1.6 1.1-2.6 2.5zm-9.3 12.3c-0.7 1.2-1.3 2.7-1.2 3.4 0 0.7-0.7 2.1-1.7 3.1-1.1 1.1-1.3 1.8-0.4 1.7 0.6 0 1.5-0.6 1.9-1.3 0.4-0.6 1.3-2.8 1.8-4.7 0.6-1.9 1-3.6 1-3.8-0.1-0.2-0.7 0.5-1.4 1.6zm58.8 44.7c-1.3 1.4-2.2 2.7-1.9 3 0.3 0.3 1.6-0.6 3-2 1.4-1.4 2.2-2.7 1.9-3-0.3-0.3-1.7 0.6-3 2zm75.1-1c0 0.6 1.8 3 4 5.5 2.1 2.5 3.9 4.1 3.9 3.5 0-0.6-1.7-3-3.9-5.5-2.2-2.5-4-4.1-4-3.5zm10 12c0 0.6 1.1 2.1 2.5 3.5 1.4 1.4 2.7 2.3 3 2 0.3-0.3-0.9-1.9-2.5-3.5-1.7-1.6-3-2.6-3-2zm-100.6 5.5c-2.7 2.8-4.4 5-3.9 5 0.6 0 3-2 5.5-4.5 2.5-2.4 4.2-4.7 3.9-5-0.3-0.2-2.8 1.8-5.5 4.5zm-9.4 7.6c-1.8 1.2-4 1.6-7.8 1.3-4.4-0.3-5-0.2-3.5 0.9 1 0.7 2.5 1.2 3.3 1.2 0.8 0 3.1-0.4 5-1 1.9-0.5 4.4-1.6 5.5-2.4 1.1-0.9 1.6-1.6 1-1.6-0.5 0-2.1 0.7-3.5 1.6zm52-1.1c0 0.6 1.5 3.4 3.3 6.4 1.7 3 3.9 5.7 4.7 5.9 1 0.4 0.7-0.5-0.8-2.4-1.3-1.6-3.5-4.7-4.8-6.9-1.3-2.2-2.3-3.6-2.4-3zm31 4c0 0.3 1.6 1.2 3.5 2 1.9 0.8 5.6 1.4 8.3 1.4l4.7-0.2c-8.5-1.1-12-1.9-13.2-2.5-1.3-0.7-2.5-1.2-2.8-1.2-0.3 0-0.5 0.2-0.5 0.5z"/><path class="g" d="m194.7 218.7c0.6 1.2 1.1 4.2 1.2 6.7 0 2.5 0.4 4.6 0.9 4.6 0.4 0 0.6-2.4 0.4-5.2-0.1-3.4-0.8-5.8-1.9-6.8-1.5-1.4-1.5-1.3-0.6 0.7z"/><path class="h" d="m154 183c-3.5 0.6-2.5 0.7 5 0.8 5.2 0.1 11.1 0.4 13 0.7 2.8 0.4 3 0.3 1-0.3-1.4-0.5-5.2-1.1-8.5-1.4-3.3-0.2-8-0.2-10.5 0.2zm37.2 7.6c-0.1 0.5 1.8 2.1 4.1 3.6 2.3 1.5 5.7 4 7.5 5.5 1.8 1.5 3.3 2.4 3.3 1.8-0.1-0.6-2.2-2.6-4.8-4.6-2.7-2-5.9-4.4-7.3-5.4-1.4-0.9-2.7-1.3-2.8-0.9zm-19.7 4.1c1.1 0.2 3.1 0.2 4.5 0 1.4-0.2 0.5-0.4-2-0.4-2.5 0-3.6 0.2-2.5 0.4zm12 4.6c2.2 2.3 4.5 5.1 5.2 6.2 1 1.8 1.2 1.8 1.2 0.3 0.1-1-1.8-3.8-4.2-6.3-2.3-2.5-4.6-4.5-5.2-4.5-0.6 0 0.8 2 3 4.3zm-42.5 27.7c0 0.6 0.2 1.7 0.5 2.5 0.3 0.8 0.9 1.5 1.5 1.5q1 0 0-1.7c-0.5-1-0.7-2.1-0.3-2.5 0.3-0.5 0.1-0.8-0.5-0.8-0.7 0-1.2 0.4-1.2 1zm-116.9 32.3c-1.5 1.5-2.1 3.1-1.8 5.2 0.4 3 0.4 3 0.6 0.3 0-1.6 1.1-3.7 2.4-4.7 1.2-1.1 1.9-2.2 1.6-2.5-0.3-0.3-1.6 0.4-2.8 1.7zm71 17c0 1.2 0.5 3.1 1 4.2 0.7 1.5 0.8 1.1 0.4-1.7-0.5-3.7-0.4-3.8 2.8-4.1 3.1-0.4 3.1-0.4-0.5-0.5-3.3-0.2-3.8 0.1-3.7 2.1z"/></svg>