<svg width="600" height="452" viewBox="0 0 600 452" fill="none" xmlns="http://www.w3.org/2000/svg">
<g clip-path="url(#clip0_2061_654)">
<path d="M0 274.004C0 274.545 0.434647 274.98 0.975899 274.98H599.024C599.565 274.98 600 274.545 600 274.004C600 273.463 599.565 273.028 599.024 273.028H0.975899C0.434647 273.028 0 273.463 0 274.004Z" fill="#3F3D56"/>
<path d="M382.947 66.9203L386.085 107.062L431.562 88.0671L405.908 47.2393L382.947 66.9203Z" fill="#A0616A"/>
<path d="M381.584 79.1499C400.307 79.1499 415.484 63.9727 415.484 45.2506C415.484 26.5285 400.307 11.3512 381.584 11.3512C362.862 11.3512 347.685 26.5285 347.685 45.2506C347.685 63.9727 362.862 79.1499 381.584 79.1499Z" fill="#A0616A"/>
<path d="M318.163 361.315L323.904 412.804L283.722 407.238L296.842 359.675L318.163 361.315Z" fill="#A0616A"/>
<path d="M474.791 368.696L480.532 420.184L440.35 414.618L453.47 367.056L474.791 368.696Z" fill="#A0616A"/>
<path d="M379.257 213.298C378.708 213.298 334.855 215.5 305.882 216.958C292.168 217.647 281.73 229.517 282.794 243.206L293.152 376.486L322.674 377.306L323.394 269.881L381.717 273.161L379.257 213.298Z" fill="#2F2E41"/>
<path d="M508.003 212.478C508.003 212.478 515.384 269.061 509.643 274.801C503.903 280.541 323.904 270.291 323.904 270.291C323.904 270.291 363.392 213.267 370.504 211.642C377.617 210.018 490.782 204.277 490.782 204.277L508.003 212.478Z" fill="#2F2E41"/>
<path d="M274.818 141.239C267.963 131.652 267.353 120.344 273.455 115.982C279.557 111.621 290.058 115.858 296.914 125.449C299.705 129.243 301.547 133.65 302.286 138.301L330.817 179.288L314.58 190.529L285.244 150.483C281.08 148.278 277.505 145.108 274.818 141.239Z" fill="#A0616A"/>
<path d="M381.307 92.3416L423.129 75.1207L501.853 196.487C501.853 196.487 446.91 208.788 428.049 211.248C409.188 213.708 387.867 203.867 387.867 203.867L381.307 92.3416Z" fill="#28684A"/>
<path d="M432.149 112.843L416.979 65.5191L436.66 80.451C436.66 80.451 492.422 117.353 492.422 132.934C492.422 148.514 509.643 196.077 509.643 196.077C509.643 196.077 528.914 212.068 522.354 226.828C515.794 241.589 530.964 239.539 532.604 250.2C534.244 260.86 509.233 275.211 509.233 275.211C509.233 275.211 503.083 214.938 483.402 214.938C463.721 214.938 432.149 112.843 432.149 112.843Z" fill="#3F3D56"/>
<path d="M384.246 91.1315L363.676 99.312C363.676 99.312 366.956 156.715 370.236 161.635C373.516 166.555 384.997 192.797 384.997 192.797V201.349C384.997 201.349 362.036 208.378 362.856 212.478C363.676 216.578 416.979 228.059 416.979 228.059C416.979 228.059 406.318 195.257 399.758 184.596C393.197 173.936 384.246 91.1315 384.246 91.1315Z" fill="#3F3D56"/>
<path d="M371.056 99.312C371.056 99.312 347.275 96.0318 343.175 123.913C339.075 151.795 341.68 155.485 341.68 155.485L334.974 171.476L312.833 146.874L291.512 160.815C291.512 160.815 330.054 223.138 345.635 221.498C361.216 219.858 384.177 174.756 384.177 174.756L371.056 99.312Z" fill="#3F3D56"/>
<path d="M489.83 221.53L477.662 393.707L446.09 392.477C446.09 392.477 439.12 229.699 439.12 227.238C439.12 224.778 442.4 210.838 462.901 210.018C483.402 209.198 489.83 221.53 489.83 221.53Z" fill="#2F2E41"/>
<path d="M444.04 396.987C444.04 396.987 460.441 392.067 462.901 395.347C465.361 398.627 479.302 400.267 479.302 400.267L483.402 440.449C483.402 440.449 471.922 448.65 470.281 450.29C468.641 451.93 425.179 453.57 424.359 443.729C423.539 433.889 435.84 421.588 435.84 421.588L444.04 396.987Z" fill="#2F2E41"/>
<path d="M323.494 385.507C323.494 385.507 328.414 381.406 330.054 392.887C331.695 404.367 337.435 423.228 329.234 425.689C321.034 428.149 239.03 428.969 239.03 421.588V414.208L246.41 408.468L261.174 406.115C261.174 406.115 289.872 379.766 293.153 379.766C296.433 379.766 307.093 390.427 307.093 390.427L323.494 385.507Z" fill="#2F2E41"/>
<path d="M414.928 63.6401C414.928 63.6401 398.528 43.9591 391.967 45.5992C385.407 47.2393 389.507 49.6994 389.507 49.6994L373.106 31.6585C373.106 31.6585 359.986 26.7383 347.685 42.3191C347.685 42.3191 340.305 29.1984 347.685 21.818C355.065 14.4376 357.525 15.2577 359.166 11.1575C360.806 7.05727 372.286 3.7771 372.286 3.7771C372.286 3.7771 371.628 -2.12462 375.237 0.826238C378.847 3.77709 387.861 3.7771 387.861 3.7771C387.861 3.7771 387.912 0.496934 391.58 3.7771C395.247 7.05727 399.348 5.41718 399.348 5.41718C399.348 5.41718 399.348 11.0929 402.218 11.1252C405.088 11.1575 410.008 7.05727 410.828 10.3374C411.648 13.6176 417.388 15.2577 418.209 25.0982C419.029 34.9387 414.928 63.6401 414.928 63.6401Z" fill="#2F2E41"/>
<path d="M281.27 146.663L187.592 211.305C184.359 213.535 179.914 212.72 177.684 209.488L151.31 171.266C149.079 168.034 149.894 163.589 153.127 161.359L246.805 96.7172C250.038 94.4865 254.483 95.3016 256.713 98.5342L283.087 136.755C285.318 139.988 284.503 144.433 281.27 146.663Z" fill="white"/>
<path d="M256.541 98.6533L282.915 136.874C285.085 140.019 284.296 144.321 281.151 146.491L235.176 178.215C223.051 174.902 211.988 167.461 204.291 156.307C199.25 149.001 196.211 140.913 195.052 132.683L246.924 96.8894C250.069 94.7194 254.371 95.5084 256.541 98.6533Z" fill="#E6E6E6"/>
<path d="M183.558 213.382C181.033 213.382 178.548 212.184 177.008 209.954L150.634 171.732C149.431 169.988 148.98 167.878 149.363 165.789C149.746 163.699 150.918 161.886 152.662 160.683L246.339 96.0419C249.946 93.5553 254.901 94.4651 257.388 98.068L283.763 136.29C284.966 138.034 285.417 140.144 285.034 142.233C284.651 144.322 283.479 146.136 281.736 147.339L188.057 211.98C186.683 212.927 185.113 213.382 183.558 213.382ZM250.841 96.2789C249.608 96.2789 248.362 96.6401 247.272 97.3921L153.593 162.034C152.209 162.987 151.28 164.426 150.976 166.085C150.672 167.743 151.03 169.418 151.984 170.8L178.358 209.022C180.332 211.881 184.265 212.604 187.125 210.63L280.804 145.988C282.187 145.035 283.116 143.596 283.421 141.937C283.725 140.279 283.367 138.604 282.413 137.222L256.038 99.0001C254.817 97.2303 252.845 96.2789 250.841 96.2789Z" fill="#3F3D56"/>
<path d="M184.236 194.298C181.862 195.937 181.263 199.201 182.901 201.575C184.54 203.949 187.804 204.548 190.178 202.91L199.823 196.255C202.197 194.616 202.796 191.352 201.158 188.978C199.519 186.604 196.255 186.005 193.881 187.643L184.236 194.298Z" fill="#28684A"/>
<path d="M190.773 140.974C187.027 143.559 186.083 148.71 188.668 152.456C191.253 156.202 196.403 157.146 200.149 154.561L215.152 144.209C218.898 141.624 219.843 136.474 217.258 132.728C214.673 128.982 209.522 128.037 205.776 130.622L190.773 140.974Z" fill="#28684A"/>
<path d="M279.027 152.371H165.21C161.283 152.371 158.087 149.176 158.087 145.248V98.8106C158.087 94.883 161.283 91.6878 165.21 91.6878H279.027C282.954 91.6878 286.15 94.883 286.15 98.8106V145.248C286.15 149.176 282.954 152.371 279.027 152.371Z" fill="white"/>
<path d="M285.94 98.8108V145.248C285.94 149.069 282.847 152.162 279.026 152.162H223.169C215.071 142.549 210.191 130.14 210.191 116.589C210.191 107.712 212.283 99.3296 216.004 91.8971H279.026C282.847 91.8971 285.94 94.9899 285.94 98.8108Z" fill="#E6E6E6"/>
<path d="M279.026 153.191H165.21C160.831 153.191 157.267 149.628 157.267 145.248V98.8103C157.267 94.4306 160.831 90.8678 165.21 90.8678H279.026C283.406 90.8678 286.97 94.4306 286.97 98.8103V145.248C286.97 149.628 283.406 153.191 279.026 153.191ZM165.21 92.5079C161.735 92.5079 158.907 95.3348 158.907 98.8103V145.248C158.907 148.724 161.735 151.551 165.21 151.551H279.026C282.502 151.551 285.33 148.724 285.33 145.248V98.8103C285.33 95.3348 282.502 92.5079 279.026 92.5079H165.21Z" fill="#3F3D56"/>
<path d="M172.107 136.468C169.223 136.468 166.876 138.815 166.876 141.699C166.876 144.584 169.223 146.93 172.107 146.93H183.825C186.71 146.93 189.057 144.584 189.057 141.699C189.057 138.815 186.71 136.468 183.825 136.468H172.107Z" fill="#28684A"/>
<path d="M207.773 96.2914C203.222 96.2914 199.519 99.9942 199.519 104.545C199.519 109.097 203.222 112.799 207.773 112.799H226.001C230.552 112.799 234.255 109.097 234.255 104.545C234.255 99.9942 230.552 96.2914 226.001 96.2914H207.773Z" fill="#28684A"/>
<path d="M374.152 313.099H260.335C256.408 313.099 253.212 309.904 253.212 305.976V259.539C253.212 255.611 256.408 252.416 260.335 252.416H374.152C378.079 252.416 381.275 255.611 381.275 259.539V305.976C381.275 309.904 378.079 313.099 374.152 313.099Z" fill="white"/>
<path d="M381.065 259.539V305.976C381.065 309.797 377.972 312.89 374.151 312.89H318.294C310.196 303.277 305.316 290.868 305.316 277.317C305.316 268.441 307.408 260.058 311.129 252.625H374.151C377.972 252.625 381.065 255.718 381.065 259.539Z" fill="#E6E6E6"/>
<path d="M374.151 313.919H260.335C255.956 313.919 252.392 310.356 252.392 305.977V259.539C252.392 255.159 255.956 251.596 260.335 251.596H374.151C378.531 251.596 382.095 255.159 382.095 259.539V305.977C382.095 310.356 378.531 313.919 374.151 313.919ZM260.335 253.236C256.86 253.236 254.032 256.063 254.032 259.539V305.977C254.032 309.452 256.86 312.279 260.335 312.279H374.151C377.627 312.279 380.455 309.452 380.455 305.977V259.539C380.455 256.063 377.627 253.236 374.151 253.236H260.335Z" fill="#3F3D56"/>
<path d="M267.232 297.196C264.348 297.196 262.001 299.543 262.001 302.427C262.001 305.312 264.348 307.659 267.232 307.659H278.95C281.835 307.659 284.182 305.312 284.182 302.427C284.182 299.543 281.835 297.196 278.95 297.196H267.232Z" fill="#28684A"/>
<path d="M302.898 257.02C298.347 257.02 294.644 260.722 294.644 265.274C294.644 269.825 298.347 273.527 302.898 273.527H321.126C325.677 273.527 329.38 269.825 329.38 265.274C329.38 260.722 325.677 257.02 321.126 257.02H302.898Z" fill="#28684A"/>
<path d="M381.872 271.448C371.419 276.891 360.137 275.909 356.674 269.256C353.211 262.603 358.878 252.799 369.336 247.356C373.483 245.124 378.105 243.918 382.814 243.839L427.396 221.335L436.25 238.988L392.487 262.421C389.72 266.234 386.08 269.33 381.872 271.448Z" fill="#A0616A"/>
<path d="M432.559 79.631C432.559 79.631 478.482 77.1708 488.322 101.772C498.163 126.373 506.363 206.737 506.363 206.737L406.318 261.167L389.097 234.619L456.341 182.136L432.559 79.631Z" fill="#3F3D56"/>
</g>
<defs>
<clipPath id="clip0_2061_654">
<rect width="600" height="451.53" fill="white"/>
</clipPath>
</defs>
</svg>
