<svg width="600" height="501" viewBox="0 0 600 501" fill="none" xmlns="http://www.w3.org/2000/svg">
<g clip-path="url(#clip0_2061_586)">
<path d="M27.8799 477.276C36.2025 492.71 53.8661 499.336 53.8661 499.336C53.8661 499.336 58.036 480.938 49.7134 465.503C41.3908 450.069 23.7273 443.443 23.7273 443.443C23.7273 443.443 19.5573 461.841 27.8799 477.276Z" fill="#2F2E41"/>
<path d="M33.6004 472.198C48.6261 481.238 54.413 499.194 54.413 499.194C54.413 499.194 35.8383 502.493 20.8126 493.453C5.78688 484.413 0 466.457 0 466.457C0 466.457 18.5746 463.158 33.6004 472.198Z" fill="#28684A"/>
<path d="M391.908 76.2769H390.568V88.6652H391.908V76.2769Z" fill="#F2F2F2"/>
<path d="M475.613 106.411H474.273V118.799H475.613V106.411Z" fill="#F2F2F2"/>
<path d="M466.238 417.122H464.898V429.511H466.238V417.122Z" fill="#F2F2F2"/>
<path d="M485.658 314.668H484.318V327.056H485.658V314.668Z" fill="#F2F2F2"/>
<path d="M242.451 470.209H83.8887V469.068H241.31V413.743H97.2186L90.2188 399.16L91.2474 398.667L97.9364 412.602H242.451V470.209Z" fill="#2F2E41"/>
<path d="M104.992 498.156C111.607 498.156 116.97 492.794 116.97 486.179C116.97 479.564 111.607 474.201 104.992 474.201C98.3773 474.201 93.0146 479.564 93.0146 486.179C93.0146 492.794 98.3773 498.156 104.992 498.156Z" fill="#3F3D56"/>
<path d="M223.058 498.156C229.673 498.156 235.036 492.794 235.036 486.179C235.036 479.564 229.673 474.201 223.058 474.201C216.443 474.201 211.081 479.564 211.081 486.179C211.081 492.794 216.443 498.156 223.058 498.156Z" fill="#3F3D56"/>
<path d="M362.228 239.212C366.323 239.212 369.643 235.892 369.643 231.797C369.643 227.702 366.323 224.382 362.228 224.382C358.133 224.382 354.813 227.702 354.813 231.797C354.813 235.892 358.133 239.212 362.228 239.212Z" fill="#3F3D56"/>
<path d="M259.41 394.921H81.1852L42.6216 268.871H299.124L298.891 269.612L259.41 394.921ZM82.029 393.78H258.573L297.569 270.011H44.1634L82.029 393.78Z" fill="#2F2E41"/>
<path d="M245.498 388.362H88.9568L55.085 276.57H280.38L280.175 277.228L245.498 388.362Z" fill="#F2F2F2"/>
<path d="M302.32 257.609L301.217 257.317L308.745 228.945H352.532V230.086H309.623L302.32 257.609Z" fill="#2F2E41"/>
<path d="M286.307 307.085H55.084V308.226H286.307V307.085Z" fill="#2F2E41"/>
<path d="M273.065 349.111H67.9414V350.252H273.065V349.111Z" fill="#2F2E41"/>
<path d="M171.44 269.441H170.299V394.35H171.44V269.441Z" fill="#2F2E41"/>
<path d="M222.513 269.405L214.324 394.311L215.463 394.386L223.651 269.48L222.513 269.405Z" fill="#2F2E41"/>
<path d="M119.25 269.404L118.112 269.478L126.253 394.387L127.391 394.313L119.25 269.404Z" fill="#2F2E41"/>
<path d="M600 498.88H0V500.219H600V498.88Z" fill="#2F2E41"/>
<path d="M398.712 41.4345C398.712 41.4345 408.502 69.2956 402.477 73.5819C396.453 77.8682 422.809 112.873 422.809 112.873L454.435 104.301L437.116 75.0107C437.116 75.0107 434.857 45.7208 434.857 41.4344C434.857 37.1481 398.712 41.4345 398.712 41.4345Z" fill="#A0616A"/>
<path opacity="0.1" d="M398.712 41.4345C398.712 41.4345 408.502 69.2956 402.477 73.5819C396.453 77.8682 422.809 112.873 422.809 112.873L454.435 104.301L437.116 75.0107C437.116 75.0107 434.857 45.7208 434.857 41.4344C434.857 37.1481 398.712 41.4345 398.712 41.4345Z" fill="black"/>
<path d="M382.281 240.034C382.281 240.034 379.424 275.754 382.281 294.328C385.139 312.902 389.425 364.338 389.425 364.338C389.425 364.338 389.425 461.494 405.142 462.923C420.859 464.352 432.289 465.781 433.718 460.066C435.146 454.35 426.574 451.493 430.86 448.635C435.146 445.778 436.575 435.776 430.86 424.346C425.145 412.916 430.86 297.185 430.86 297.185L458.007 370.053C458.007 370.053 460.865 430.061 463.722 438.634C466.58 447.207 460.865 462.923 470.866 464.352C480.868 465.781 492.298 457.208 498.013 454.35C503.728 451.493 489.44 451.493 492.298 450.064C495.155 448.635 503.728 444.349 500.871 442.92C498.013 441.491 495.155 372.91 495.155 372.91C495.155 372.91 487.297 226.461 477.296 220.746C467.294 215.031 460.865 224.875 460.865 224.875L382.281 240.034Z" fill="#2F2E41"/>
<path d="M408 457.208V468.638C408 468.638 395.141 499.709 408 499.709C420.859 499.709 430.86 502.929 430.86 498.642V460.066L408 457.208Z" fill="#2F2E41"/>
<path d="M492.298 457.188V468.618C492.298 468.618 505.157 499.689 492.298 499.689C479.439 499.689 469.438 502.908 469.438 498.622V460.045L492.298 457.188Z" fill="#2F2E41"/>
<path d="M418.716 62.1517C432.919 62.1517 444.434 50.6374 444.434 36.4338C444.434 22.2301 432.919 10.7158 418.716 10.7158C404.512 10.7158 392.998 22.2301 392.998 36.4338C392.998 50.6374 404.512 62.1517 418.716 62.1517Z" fill="#A0616A"/>
<path d="M410.857 84.2977C410.857 84.2977 418.001 105.729 429.431 101.443L440.862 97.1567L460.865 234.319C460.865 234.319 445.148 257.179 422.287 242.892C399.427 228.604 410.857 84.2977 410.857 84.2977Z" fill="#28684A"/>
<path d="M430.86 80.0114L437.29 66.438C437.29 66.438 475.153 84.2977 480.868 90.0128C486.583 95.7279 486.583 104.301 486.583 104.301L476.582 140.02C476.582 140.02 479.439 218.603 479.439 221.46C479.439 224.318 489.441 240.034 482.297 234.319C475.153 228.604 473.724 222.889 468.009 231.462C462.294 240.034 449.435 250.036 449.435 250.036L430.86 80.0114Z" fill="#3F3D56"/>
<path d="M480.868 182.883L476.581 222.889C476.581 222.889 450.863 245.749 456.578 247.178C462.293 248.607 465.151 242.892 465.151 242.892C465.151 242.892 475.152 252.893 480.868 247.178C486.583 241.463 500.871 187.17 500.871 187.17L480.868 182.883Z" fill="#A0616A"/>
<path d="M419.264 0.0869665C413.562 -0.116851 407.461 -0.217672 402.654 2.85472C400.442 4.39662 398.502 6.29562 396.913 8.474C392.231 14.3926 388.186 21.8395 389.925 29.1828L391.945 28.395C391.945 30.3552 391.509 32.2908 390.669 34.0619C390.954 33.2348 391.906 34.5718 391.651 35.4084L389.426 42.7079C393.084 41.3671 397.634 44.082 398.191 47.9376C398.445 39.4592 399.325 29.7371 406.202 24.7726C409.671 22.2691 414.06 21.5048 418.284 20.8261C422.18 20.2 426.264 19.603 429.996 20.8856C433.728 22.1683 436.906 25.9849 436.06 29.8393C437.781 29.2465 439.705 30.4458 440.556 32.0548C441.406 33.6639 441.451 35.5621 441.476 37.3818C443.311 38.6781 445.398 36.104 446.146 33.986C447.9 29.0144 449.46 23.7222 448.515 18.5355C447.569 13.3487 443.343 8.392 438.071 8.37441C438.711 7.67151 439.052 6.74726 439.023 5.79715L434.677 5.42998C435.78 5.27378 436.795 4.73888 437.547 3.91691C435.802 5.83671 422.085 0.187821 419.264 0.0869665Z" fill="#2F2E41"/>
<path d="M418.001 75.7251C418.001 75.7251 406.37 64.3273 402.184 65.0255C397.998 65.7236 392.283 75.7251 392.283 75.7251C392.283 75.7251 357.992 87.1553 359.421 98.5855C360.85 110.016 376.566 165.738 376.566 165.738C376.566 165.738 389.425 232.89 377.995 240.034C366.565 247.178 432.289 265.752 433.718 257.179C435.147 248.607 438.004 162.88 433.718 150.021C429.431 137.162 418.001 75.7251 418.001 75.7251Z" fill="#3F3D56"/>
<path d="M468.009 98.5855H485.676C485.676 98.5855 498.013 152.879 499.442 158.594C500.871 164.309 503.728 191.456 502.3 191.456C500.871 191.456 472.295 185.741 472.295 190.027L468.009 98.5855Z" fill="#3F3D56"/>
<path d="M467.411 233.034H399.777C393.177 202.672 392.625 173.338 399.777 145.311H467.411C456.496 172.834 455.814 201.967 467.411 233.034Z" fill="#F2F2F2"/>
<path d="M372.28 195.742L392.283 204.315C392.283 204.315 430.86 210.03 430.86 194.313C430.86 178.597 392.283 187.17 392.283 187.17L379.423 183.058L372.28 195.742Z" fill="#A0616A"/>
<path d="M376.566 90.0128L359.421 94.2992L346.562 170.024C346.562 170.024 342.276 190.027 349.419 191.456C356.563 192.885 376.566 204.315 376.566 204.315C376.566 204.315 379.424 182.883 385.139 182.883L370.851 171.453L379.424 121.446L376.566 90.0128Z" fill="#3F3D56"/>
</g>
<defs>
<clipPath id="clip0_2061_586">
<rect width="600" height="500.87" fill="white"/>
</clipPath>
</defs>
</svg>
